<?xml version="1.0" encoding="UTF-8" standalone="no"?>
<svg
   xmlns:dc="http://purl.org/dc/elements/1.1/"
   xmlns:cc="http://creativecommons.org/ns#"
   xmlns:rdf="http://www.w3.org/1999/02/22-rdf-syntax-ns#"
   xmlns:svg="http://www.w3.org/2000/svg"
   xmlns="http://www.w3.org/2000/svg"
   shape-rendering="auto"
   id="svg975"
   version="1.1"
   viewBox="0 0 92.472702 14.231043"
   height="14.231043mm"
   width="92.472702mm">
  <defs
     id="defs969" />
  <metadata
     id="metadata972">
    <rdf:RDF>
      <cc:Work
         rdf:about="">
        <dc:format>image/svg+xml</dc:format>
        <dc:type
           rdf:resource="http://purl.org/dc/dcmitype/StillImage" />
        <dc:title></dc:title>
      </cc:Work>
    </rdf:RDF>
  </metadata>
  <g
     transform="translate(-0.19936694,-282.49102)"
     id="layer1">
    <rect
       y="281.99359"
       x="-0.73735106"
       height="15.22589"
       width="94.346138"
       id="rect1556"
       style="opacity:1;fill:#ffffff;fill-opacity:1;stroke:none;stroke-width:0.10172911;stroke-linecap:square;stroke-linejoin:miter;stroke-miterlimit:4;stroke-dasharray:none;stroke-dashoffset:0;stroke-opacity:1" />
    <g
       transform="matrix(0.26458333,0,0,0.26458333,0.19936694,282.5496)"
       id="Symbols"
       style="display:inline;fill:none;fill-rule:evenodd;stroke:none;stroke-width:1">
      <g
         transform="translate(-141,-42)"
         id="header">
        <g
           transform="translate(141,42)"
           id="logo">
          <path
             style="fill:#837f79"
             id="Fill-1"
             d="m 0,29.118443 h 4.1249508 v -9.792492 h 4.3596885 l 5.5669677,9.792492 H 18.54541 L 12.710164,18.789344 c 3.454229,-0.838377 5.499885,-3.085278 5.499885,-7.042573 0,-5.0639022 -3.420639,-7.4449677 -9.3230162,-7.4449677 H 0 Z M 4.1249508,15.670525 V 8.1248853 h 4.5608853 c 3.5548029,0 5.3993119,0.8719672 5.3993119,3.7225077 0,2.951164 -1.87805,3.823132 -5.3657709,3.823132 z" />
          <polygon
             style="fill:#837f79"
             points="29.008672,4.3017541 24.783147,4.3017541 24.783147,29.118443 29.008672,29.118443 "
             id="Fill-2" />
          <polygon
             style="fill:#837f79"
             points="55.133115,4.3018033 51.176066,4.3018033 44.67,23.652098 44.602918,23.652098 38.197574,4.3018033 33.938459,4.3018033 42.557213,29.219066 46.514508,29.219066 "
             id="Fill-3" />
          <path
             style="fill:#837f79"
             id="Fill-4"
             d="m 56.139344,29.118443 h 3.923607 l 2.045901,-5.902328 h 9.423443 l 2.012459,5.902328 h 4.292459 L 69.050656,4.2011803 h -4.124754 z m 7.243771,-9.591295 3.454426,-10.0608201 h 0.06688 L 70.29147,19.527148 Z" />
          <path
             style="fill:#837f79"
             id="Fill-5"
             d="m 92.190492,29.587967 c 5.734918,0 8.786558,-3.320065 9.993938,-8.249852 l -3.990987,-0.905508 c -0.938853,3.722508 -2.749673,5.332229 -5.969509,5.332229 -4.191639,0 -6.707213,-3.252984 -6.707213,-9.155311 0,-5.63405 2.448197,-8.8870332 6.640328,-8.8870332 3.286721,0 4.728689,1.6767541 5.667541,4.9633282 l 3.99098,-1.140246 c -1.10705,-4.5273445 -3.856717,-7.7132953 -9.625078,-7.7132953 -6.237541,0 -10.899345,4.4938525 -10.899345,12.8107873 0,8.551672 4.527541,12.944901 10.899345,12.944901 z" />
          <path
             style="fill:#837f79"
             id="Fill-6"
             d="m 117.57738,29.587967 c 6.27098,0 11.16737,-4.527344 11.16737,-12.877819 0,-8.3504759 -4.89639,-12.8778693 -11.16737,-12.8778693 -6.30492,0 -11.23476,4.5273934 -11.23476,12.8778693 0,8.350475 4.92984,12.877819 11.23476,12.877819 z m 0,-3.78959 c -4.22558,0 -7.00918,-3.252984 -7.00918,-9.088229 0,-5.835296 2.7836,-9.0211972 7.00918,-9.0211972 4.15869,0 6.9418,3.1859012 6.9418,9.0211972 0,5.835245 -2.78311,9.088229 -6.9418,9.088229 z" />
          <polygon
             style="fill:#837f79"
             points="138.40328,11.042557 138.47016,11.042557 150.64377,29.118443 154.46705,29.118443 154.46705,4.3018033 150.57689,4.3018033 150.57689,22.008836 150.51,22.008836 138.77213,4.3018033 134.51311,4.3018033 134.51311,29.118443 138.40328,29.118443 "
             id="Fill-7" />
          <polygon
             style="fill:#b99d6d"
             points="49.391803,-7.1054274e-15 44.626328,14.287623 39.885443,-7.1054274e-15 "
             id="Fill-8" />
        </g>
      </g>
    </g>
    <path
       id="path1610"
       transform="matrix(0.26458333,0,0,0.26458333,0.19936694,282.49102)"
       d="M 193.20312 0 C 191.28613 0 189.78808 0.56543533 188.70898 1.6953125 C 187.64258 2.8251897 187.10938 4.4433671 187.10938 6.5507812 L 187.10938 9.0449219 L 183.69922 9.0449219 L 183.69922 10.912109 L 187.10938 10.912109 L 187.10938 29.650391 L 189.39453 29.650391 L 189.39453 10.912109 L 194.30664 10.912109 L 194.30664 9.0449219 L 189.39453 9.0449219 L 189.39453 6.4941406 C 189.39453 5.0595579 189.74316 3.9540875 190.44141 3.1796875 C 191.13965 2.3925631 192.11621 2 193.37305 2 C 194.12207 2 194.81445 2.0760747 195.44922 2.2285156 L 195.62109 0.32421875 C 194.87207 0.10853371 194.0664 1.1972925e-17 193.20312 0 z M 330.73047 0.40039062 L 330.73047 29.650391 L 333.01562 29.650391 L 333.01562 21.785156 L 335.62305 19.271484 L 343.96484 29.650391 L 346.6875 29.650391 L 337.18555 17.728516 L 344.625 10.337891 C 345.01725 10.484389 345.4356 10.576172 345.87695 10.576172 C 347.86863 10.576172 349.50197 8.9428316 349.50195 6.9511719 C 349.50194 4.959512 347.86861 3.3261719 345.87695 3.3261719 C 343.88529 3.3261719 342.25392 4.959512 342.25391 6.9511719 C 342.2539 7.7605294 342.53253 8.5020738 342.98633 9.1074219 L 335.16602 16.796875 L 333.01562 19.119141 L 333.01562 0.40039062 L 330.73047 0.40039062 z M 253.26367 3.7714844 L 253.26367 9.0449219 L 249.47461 9.0449219 L 249.47461 10.912109 L 253.26367 10.912109 L 253.26367 24.660156 C 253.26367 26.424818 253.61914 27.765621 254.33008 28.679688 C 255.04101 29.581054 256.17676 30.03125 257.73828 30.03125 C 258.7666 30.03125 259.5791 29.922968 260.17578 29.707031 L 260.08008 27.841797 C 259.22949 27.968789 258.61524 28.03125 258.23438 28.03125 C 257.26953 28.03125 256.57715 27.751948 256.1582 27.193359 C 255.75195 26.634745 255.54883 25.785155 255.54883 24.642578 L 255.54883 10.912109 L 259.81445 10.912109 L 259.81445 9.0449219 L 255.54883 9.0449219 L 255.54883 3.7714844 L 253.26367 3.7714844 z M 345.87695 5.0761719 C 346.92285 5.0761719 347.75195 5.9052632 347.75195 6.9511719 C 347.75196 7.9970805 346.92285 8.8261719 345.87695 8.8261719 C 344.83105 8.8261719 344.00195 7.9970805 344.00195 6.9511719 C 344.00196 5.9052632 344.83106 5.0761719 345.87695 5.0761719 z M 205.89453 8.6640625 C 203.22852 8.6640625 201.29199 9.8827944 200.08594 12.320312 L 200.04883 9.0449219 L 197.82031 9.0449219 L 197.82031 29.650391 L 200.08594 29.650391 L 200.08594 15.5 C 200.50488 13.989247 201.2041 12.841787 202.18164 12.054688 C 203.17187 11.254864 204.37695 10.853516 205.79883 10.853516 C 206.34473 10.853516 206.85938 10.899336 207.3418 10.988281 L 207.39844 8.9121094 C 207.03027 8.74707 206.5293 8.6640625 205.89453 8.6640625 z M 217.86328 8.6640625 C 216.08594 8.6640625 214.49316 9.1093792 213.08398 9.9980469 C 211.6875 10.874041 210.60058 12.104509 209.82617 13.691406 C 209.06445 15.278329 208.68359 17.062496 208.68359 19.042969 L 208.68359 19.5 C 208.68359 22.673846 209.53516 25.226574 211.23633 27.15625 C 212.9502 29.073252 215.1709 30.03125 217.90039 30.03125 C 219.69043 30.03125 221.28516 29.599623 222.68164 28.736328 C 224.07812 27.873059 225.15625 26.64747 225.91797 25.060547 C 226.69238 23.46095 227.08008 21.665047 227.08008 19.671875 L 227.08008 19.195312 C 227.08008 16.021467 226.22851 13.47557 224.52734 11.558594 C 222.82617 9.628893 220.60547 8.6640625 217.86328 8.6640625 z M 240.17188 8.6640625 C 238.77539 8.6640625 237.49902 9.0009714 236.34375 9.6738281 C 235.18848 10.333986 234.22363 11.298816 233.44922 12.568359 L 233.37305 9.0449219 L 231.20312 9.0449219 L 231.20312 29.650391 L 233.46875 29.650391 L 233.46875 15.539062 C 233.98926 14.041034 234.78808 12.854509 235.86719 11.978516 C 236.95898 11.089848 238.20996 10.644531 239.61914 10.644531 C 241.30762 10.644531 242.5332 11.09668 243.29492 11.998047 C 244.06943 12.899414 244.46201 14.270497 244.47461 16.111328 L 244.47461 29.650391 L 246.74219 29.650391 L 246.74219 16.128906 C 246.72949 13.640616 246.18262 11.775395 245.10352 10.53125 C 244.02441 9.2871051 242.38086 8.6640625 240.17188 8.6640625 z M 272.79102 8.6640625 C 271.39453 8.6640625 270.125 8.9755712 268.98242 9.5976562 C 267.83985 10.219716 266.88867 11.152339 266.12695 12.396484 L 266.05078 9.0449219 L 263.86133 9.0449219 L 263.86133 29.650391 L 266.14648 29.650391 L 266.14648 15.519531 C 266.6416 13.90721 267.40332 12.69531 268.43164 11.882812 C 269.45996 11.057616 270.69043 10.644531 272.125 10.644531 C 273.82617 10.644531 275.08399 11.082991 275.89648 11.958984 C 276.72178 12.822254 277.13975 14.135754 277.15234 15.900391 L 277.15234 29.650391 L 279.4375 29.650391 L 279.4375 16.015625 C 279.56445 14.530271 280.19238 13.272474 281.32227 12.244141 C 282.45215 11.203183 283.83691 10.66998 285.47461 10.644531 C 287.23926 10.644531 288.50879 11.089848 289.2832 11.978516 C 290.07041 12.867209 290.46982 14.231459 290.48242 16.072266 L 290.48242 29.650391 L 292.76758 29.650391 L 292.76758 15.900391 C 292.67871 11.076176 290.42578 8.6640625 286.00781 8.6640625 C 284.52246 8.6640625 283.16309 9.0146355 281.93164 9.7128906 C 280.70019 10.398421 279.7168 11.38182 278.98047 12.664062 C 278.10449 9.9980342 276.04101 8.6640625 272.79102 8.6640625 z M 305.28906 8.6640625 C 303.06738 8.6640625 301.19531 9.2685369 299.67188 10.474609 C 298.14844 11.667957 297.38672 13.083009 297.38672 14.720703 L 299.67188 14.740234 C 299.67188 13.597658 300.19141 12.619138 301.23242 11.806641 C 302.27344 10.994143 303.58692 10.587891 305.17383 10.587891 C 306.91309 10.587891 308.2334 11.012711 309.13477 11.863281 C 310.04883 12.701177 310.50586 13.857423 310.50586 15.330078 L 310.50586 17.671875 L 306.375 17.671875 C 303.3916 17.671875 301.06055 18.255853 299.38477 19.423828 C 297.72168 20.591803 296.89062 22.179701 296.89062 24.185547 C 296.89062 25.874038 297.5 27.270521 298.71875 28.375 C 299.9502 29.479504 301.55664 30.03125 303.53711 30.03125 C 304.9209 30.03125 306.22754 29.751974 307.45898 29.193359 C 308.70313 28.622071 309.72559 27.816398 310.52539 26.775391 C 310.58887 28.044934 310.73438 29.002932 310.96289 29.650391 L 313.40039 29.650391 L 313.40039 29.421875 C 312.98145 28.431639 312.77344 26.940437 312.77344 24.947266 L 312.77344 15.197266 C 312.73535 13.140623 312.0498 11.541014 310.7168 10.398438 C 309.39648 9.2431619 307.58691 8.6640625 305.28906 8.6640625 z M 326.30273 8.6640625 C 323.63672 8.6640625 321.7002 9.8827944 320.49414 12.320312 L 320.45703 9.0449219 L 318.22852 9.0449219 L 318.22852 29.650391 L 320.49414 29.650391 L 320.49414 15.5 C 320.91309 13.989247 321.6123 12.841787 322.58984 12.054688 C 323.58008 11.254864 324.78516 10.853516 326.20703 10.853516 C 326.75293 10.853516 327.26758 10.899336 327.75 10.988281 L 327.80664 8.9121094 C 327.43848 8.74707 326.9375 8.6640625 326.30273 8.6640625 z M 217.86328 10.607422 C 219.22168 10.607422 220.42676 10.969731 221.48047 11.693359 C 222.53418 12.404289 223.35352 13.413087 223.9375 14.720703 C 224.52148 16.028319 224.81445 17.468745 224.81445 19.042969 L 224.81445 19.480469 C 224.81445 22.070327 224.17285 24.159196 222.89062 25.746094 C 221.62109 27.320317 219.95703 28.107422 217.90039 28.107422 C 215.83106 28.107422 214.15527 27.320317 212.87305 25.746094 C 211.60352 24.159196 210.96875 22.134766 210.96875 19.671875 L 210.96875 19.251953 C 210.96875 16.674819 211.61035 14.592782 212.89258 13.005859 C 214.17481 11.406263 215.83203 10.607422 217.86328 10.607422 z M 306.43164 19.423828 L 310.50586 19.423828 L 310.50586 23.957031 C 309.95996 25.188477 309.08496 26.171876 307.87891 26.908203 C 306.68555 27.644531 305.32617 28.011719 303.80273 28.011719 C 302.43164 28.011719 301.31445 27.630867 300.45117 26.869141 C 299.60059 26.10744 299.17578 25.149416 299.17578 23.994141 C 299.17578 22.584956 299.81738 21.481439 301.09961 20.681641 C 302.38184 19.869193 304.15918 19.449277 306.43164 19.423828 z "
       style="font-weight:300;font-size:10.31874943px;font-family:roboto;letter-spacing:-0.15875px;text-anchor:end;fill:#11192d;fill-opacity:1;stroke-width:0.99999994" />
    <g
       id="text844"
       style="font-weight:300;font-size:3.70416665px;font-family:roboto;letter-spacing:0.10583334px;text-anchor:middle;fill:#009cd0;stroke-width:0.26458332"
       aria-label="ADVANCED VALUATION">
      <path
         id="path1575"
         style="font-weight:300;font-size:3.70416665px;font-family:roboto;letter-spacing:0.10583334px;text-anchor:middle;fill:#009cd0;stroke-width:0.26458332"
         d="m 52.26949,295.94794 h -1.195535 l -0.271301,0.73794 h -0.233319 l 0.99658,-2.63343 h 0.211615 l 0.99658,2.63343 H 52.5426 Z m -1.126805,-0.18991 h 1.056266 l -0.528133,-1.43428 z" />
      <path
         id="path1577"
         style="font-weight:300;font-size:3.70416665px;font-family:roboto;letter-spacing:0.10583334px;text-anchor:middle;fill:#009cd0;stroke-width:0.26458332"
         d="m 53.268809,296.68588 v -2.63343 h 0.73613 q 0.323753,0 0.580585,0.14831 0.256832,0.14651 0.399717,0.42142 0.144694,0.27492 0.144694,0.62581 v 0.24236 q 0,0.35269 -0.142885,0.6258 -0.142885,0.27311 -0.403335,0.42142 -0.25864,0.14831 -0.595054,0.14831 z m 0.222467,-2.44352 v 2.25542 h 0.499194 q 0.415995,0 0.667401,-0.27492 0.251406,-0.27673 0.251406,-0.74698 v -0.23151 q 0,-0.45398 -0.247789,-0.72709 -0.247788,-0.27311 -0.652931,-0.27492 z" />
      <path
         id="path1579"
         style="font-weight:300;font-size:3.70416665px;font-family:roboto;letter-spacing:0.10583334px;text-anchor:middle;fill:#009cd0;stroke-width:0.26458332"
         d="m 56.556102,296.36032 0.01447,0.0561 0.01628,-0.0561 0.828373,-2.30787 h 0.244171 l -0.980301,2.63343 h -0.213424 l -0.980302,-2.63343 h 0.242362 z" />
      <path
         id="path1581"
         style="font-weight:300;font-size:3.70416665px;font-family:roboto;letter-spacing:0.10583334px;text-anchor:middle;fill:#009cd0;stroke-width:0.26458332"
         d="m 59.438251,295.94794 h -1.195534 l -0.271302,0.73794 h -0.233319 l 0.99658,-2.63343 h 0.211615 l 0.99658,2.63343 h -0.23151 z m -1.126805,-0.18991 h 1.056267 l -0.528134,-1.43428 z" />
      <path
         id="path1583"
         style="font-weight:300;font-size:3.70416665px;font-family:roboto;letter-spacing:0.10583334px;text-anchor:middle;fill:#009cd0;stroke-width:0.26458332"
         d="m 62.398174,296.68588 h -0.222467 l -1.513861,-2.25361 v 2.25361 H 60.43757 v -2.63343 h 0.224276 l 1.515669,2.25542 v -2.25542 h 0.220659 z" />
      <path
         id="path1585"
         style="font-weight:300;font-size:3.70416665px;font-family:roboto;letter-spacing:0.10583334px;text-anchor:middle;fill:#009cd0;stroke-width:0.26458332"
         d="m 65.041578,295.86474 q -0.04522,0.416 -0.298431,0.63666 -0.251406,0.22066 -0.671018,0.22066 -0.293006,0 -0.51909,-0.14651 -0.224276,-0.1465 -0.347266,-0.41418 -0.12299,-0.2695 -0.124798,-0.61495 v -0.34184 q 0,-0.35089 0.122989,-0.62219 0.12299,-0.2713 0.352692,-0.4178 0.231511,-0.14831 0.531751,-0.14831 0.42323,0 0.667401,0.2297 0.24598,0.22789 0.28577,0.63123 h -0.224275 q -0.0832,-0.67102 -0.728896,-0.67102 -0.358118,0 -0.571542,0.26768 -0.211615,0.26769 -0.211615,0.73975 v 0.32195 q 0,0.45578 0.206189,0.72708 0.207998,0.2713 0.56069,0.2713 0.349074,0 0.526324,-0.16639 0.17725,-0.16821 0.21885,-0.50282 z" />
      <path
         id="path1587"
         style="font-weight:300;font-size:3.70416665px;font-family:roboto;letter-spacing:0.10583334px;text-anchor:middle;fill:#009cd0;stroke-width:0.26458332"
         d="M 67.145998,295.42343 H 65.91429 v 1.07435 h 1.416193 v 0.1881 h -1.63866 v -2.63343 h 1.629617 v 0.18991 h -1.40715 v 0.99297 h 1.231708 z" />
      <path
         id="path1589"
         style="font-weight:300;font-size:3.70416665px;font-family:roboto;letter-spacing:0.10583334px;text-anchor:middle;fill:#009cd0;stroke-width:0.26458332"
         d="m 67.902953,296.68588 v -2.63343 h 0.736131 q 0.323753,0 0.580585,0.14831 0.256832,0.14651 0.399717,0.42142 0.144694,0.27492 0.144694,0.62581 v 0.24236 q 0,0.35269 -0.142885,0.6258 -0.142886,0.27311 -0.403335,0.42142 -0.25864,0.14831 -0.595054,0.14831 z m 0.222467,-2.44352 v 2.25542 h 0.499195 q 0.415995,0 0.667401,-0.27492 0.251406,-0.27673 0.251406,-0.74698 v -0.23151 q 0,-0.45398 -0.247789,-0.72709 -0.247788,-0.27311 -0.652932,-0.27492 z" />
      <path
         id="path1591"
         style="font-weight:300;font-size:3.70416665px;font-family:roboto;letter-spacing:0.10583334px;text-anchor:middle;fill:#009cd0;stroke-width:0.26458332"
         d="m 72.236591,296.36032 0.01447,0.0561 0.01628,-0.0561 0.828373,-2.30787 h 0.244172 l -0.980302,2.63343 h -0.213424 l -0.980302,-2.63343 h 0.242363 z" />
      <path
         id="path1593"
         style="font-weight:300;font-size:3.70416665px;font-family:roboto;letter-spacing:0.10583334px;text-anchor:middle;fill:#009cd0;stroke-width:0.26458332"
         d="m 75.11874,295.94794 h -1.195534 l -0.271301,0.73794 h -0.233319 l 0.99658,-2.63343 h 0.211615 l 0.99658,2.63343 H 75.39185 Z m -1.126804,-0.18991 h 1.056266 l -0.528133,-1.43428 z" />
      <path
         id="path1595"
         style="font-weight:300;font-size:3.70416665px;font-family:roboto;letter-spacing:0.10583334px;text-anchor:middle;fill:#009cd0;stroke-width:0.26458332"
         d="m 76.342336,296.49778 h 1.300437 v 0.1881 H 76.11806 v -2.63343 h 0.224276 z" />
      <path
         id="path1597"
         style="font-weight:300;font-size:3.70416665px;font-family:roboto;letter-spacing:0.10583334px;text-anchor:middle;fill:#009cd0;stroke-width:0.26458332"
         d="m 79.897312,294.05245 v 1.79782 q -0.0018,0.26588 -0.117564,0.46303 -0.115755,0.19714 -0.32737,0.30385 -0.209806,0.10491 -0.482916,0.10491 -0.415995,0 -0.667401,-0.22609 -0.249597,-0.22789 -0.258641,-0.62942 v -1.8141 h 0.220659 v 1.78155 q 0,0.33279 0.189911,0.51728 0.18991,0.18267 0.515472,0.18267 0.325561,0 0.513664,-0.18448 0.189911,-0.18449 0.189911,-0.51366 v -1.78336 z" />
      <path
         id="path1599"
         style="font-weight:300;font-size:3.70416665px;font-family:roboto;letter-spacing:0.10583334px;text-anchor:middle;fill:#009cd0;stroke-width:0.26458332"
         d="m 82.012583,295.94794 h -1.195534 l -0.271301,0.73794 h -0.233319 l 0.99658,-2.63343 h 0.211615 l 0.99658,2.63343 h -0.231511 z m -1.126804,-0.18991 h 1.056266 l -0.528133,-1.43428 z" />
      <path
         id="path1601"
         style="font-weight:300;font-size:3.70416665px;font-family:roboto;letter-spacing:0.10583334px;text-anchor:middle;fill:#009cd0;stroke-width:0.26458332"
         d="m 84.567364,294.24236 h -0.902529 v 2.44352 h -0.222467 v -2.44352 h -0.90072 v -0.18991 h 2.025716 z" />
      <path
         id="path1603"
         style="font-weight:300;font-size:3.70416665px;font-family:roboto;letter-spacing:0.10583334px;text-anchor:middle;fill:#009cd0;stroke-width:0.26458332"
         d="M 85.371347,296.68588 H 85.14888 v -2.63343 h 0.222467 z" />
      <path
         id="path1605"
         style="font-weight:300;font-size:3.70416665px;font-family:roboto;letter-spacing:0.10583334px;text-anchor:middle;fill:#009cd0;stroke-width:0.26458332"
         d="m 88.135932,295.51205 q 0,0.36355 -0.126607,0.63846 -0.124799,0.27492 -0.358118,0.42323 -0.233319,0.14832 -0.538985,0.14832 -0.461212,0 -0.745174,-0.32918 -0.283962,-0.33099 -0.283962,-0.89168 v -0.2713 q 0,-0.35993 0.126607,-0.63665 0.128416,-0.27854 0.361735,-0.42685 0.233319,-0.15012 0.537177,-0.15012 0.303857,0 0.535367,0.1465 0.23332,0.1465 0.359927,0.41419 0.126607,0.26768 0.132033,0.62037 z m -0.222467,-0.28577 q 0,-0.47568 -0.215232,-0.74517 -0.215233,-0.26949 -0.589628,-0.26949 -0.367161,0 -0.586011,0.2713 -0.217041,0.26949 -0.217041,0.75421 v 0.27492 q 0,0.46845 0.217041,0.74337 0.217041,0.27311 0.589628,0.27311 0.378013,0 0.589628,-0.26949 0.211615,-0.27131 0.211615,-0.75422 z" />
      <path
         id="path1607"
         style="font-weight:300;font-size:3.70416665px;font-family:roboto;letter-spacing:0.10583334px;text-anchor:middle;fill:#009cd0;stroke-width:0.26458332"
         d="m 90.766673,296.68588 h -0.222467 l -1.513861,-2.25361 v 2.25361 H 88.80607 v -2.63343 h 0.224275 l 1.51567,2.25542 v -2.25542 h 0.220658 z" />
    </g>
  </g>
</svg>
